<?xml version="1.0" encoding="utf-8"?>
<svg version="1.1" xmlns="http://www.w3.org/2000/svg" xmlns:xlink="http://www.w3.org/1999/xlink" x="0px" y="0px"
	 viewBox="0 0 2736 936" style="enable-background:new 0 0 2736 936;" xml:space="preserve">
<style type="text/css">
	.st0{fill:#EC008C;}
	.st1{fill:#FFF200;}
	.st2{fill:#00AEEF;}
	.st3{fill:#9E005D;}
	.st4{fill:#C40075;}
	.st5{fill:#D8C800;}
	.st6{fill:#0092C8;}
	.st7{fill:#0076A3;}
	.st8{fill:#ABA000;}
</style>
<g id="Default">
	<g id="XMLID_1_">
		<g>
			<polygon class="st0" points="2540.2,448.7 2540.2,450 2516.4,450 2516.4,473.8 2516.4,522.7 2467.5,522.7 2467.5,451.3
				2442.4,451.3 2442.4,426.2 2418.6,426.2 2418.6,353.5 2467.5,353.5 2467.5,401.1 2467.5,424.9 2515.1,424.9 2515.1,353.5
				2564,353.5 2564,424.9 2540.2,424.9 			"/>
			<polygon class="st0" points="2393.5,353.5 2393.5,377.3 2345.9,377.3 2345.9,424.9 2345.9,522.7 2297.1,522.7 2297.1,378.6
				2248.2,378.6 2248.2,353.5 			"/>
			<polygon class="st0" points="2234.9,497.6 2234.9,522.7 2089.6,522.7 2089.6,497.6 2138.5,497.6 2138.5,378.6 2089.6,378.6
				2089.6,353.5 2234.9,353.5 2234.9,366.8 2234.9,377.3 2187.4,377.3 2187.4,424.9 2187.4,497.6 			"/>
			<polygon class="st0" points="2034.1,520 2034.1,522.7 1936.3,522.7 1936.3,500.2 1912.5,500.2 1912.5,473.8 1887.4,473.8
				1887.4,402.4 1909.9,402.4 1909.9,378.6 1935,378.6 1935,353.5 2032.8,353.5 2032.8,377.3 2056.6,377.3 2056.6,386.6
				2056.6,402.4 2007.7,402.4 2007.7,378.6 1958.8,378.6 1958.8,402.4 1936.3,402.4 1936.3,424.9 1936.3,438.4 1936.3,473.8
				1961.4,473.8 1961.4,497.6 1983.9,497.6 2007.7,497.6 2007.7,473.8 2056.6,473.8 2056.6,497.6 2034.1,497.6 			"/>
			<polygon class="st1" points="1862.3,498.9 1862.3,522.7 1717,522.7 1717,497.6 1765.9,497.6 1765.9,378.6 1717,378.6 1717,353.5
				1862.3,353.5 1862.3,377.3 1814.8,377.3 1814.8,424.9 1814.8,497.6 1827.6,497.6 1862.3,497.6 			"/>
			<polygon class="st2" points="1691.9,497.6 1691.9,522.7 1546.5,522.7 1546.5,353.5 1595.4,353.5 1595.4,497.6 			"/>
			<path class="st2" d="M1518.8,401.1v121.6H1470v-47.6h-71.3v47.6h-48.9V402.4h22.5v-23.8h25.1v-25.1h72.7v23.8h25.1v23.8h3.9
				H1518.8z M1470,450v-48.9h-23.8v-22.5h-25.1v23.8h-22.5v22.5v1.3v22.5v1.3h22.5H1470z"/>
			<polygon class="st2" points="1324.6,497.6 1324.6,522.7 1179.3,522.7 1179.3,497.6 1228.2,497.6 1228.2,378.6 1179.3,378.6
				1179.3,353.5 1324.6,353.5 1324.6,377.3 1277,377.3 1277,424.9 1277,497.6 1289.9,497.6 			"/>
			<polygon class="st2" points="1123.8,520 1123.8,522.7 1026,522.7 1026,500.2 1002.2,500.2 1002.2,473.8 977.1,473.8 977.1,402.4
				999.5,402.4 999.5,378.6 1024.7,378.6 1024.7,353.5 1122.4,353.5 1122.4,377.3 1146.2,377.3 1146.2,386.6 1146.2,402.4
				1097.3,402.4 1097.3,378.6 1048.4,378.6 1048.4,402.4 1026,402.4 1026,424.9 1026,438.4 1026,473.8 1051.1,473.8 1051.1,497.6
				1073.6,497.6 1097.3,497.6 1097.3,473.8 1146.2,473.8 1146.2,497.6 1123.8,497.6 			"/>
			<polygon class="st2" points="937.5,522.7 815.9,522.7 815.9,500.2 790.8,500.2 790.8,353.5 839.7,353.5 839.7,497.6 851.2,497.6
				911,497.6 911,353.5 959.9,353.5 959.9,419.6 959.9,491 959.9,497.6 937.5,497.6 937.5,520 			"/>
			<path class="st2" d="M751.1,496.2v1.3H726v25.1H604.5V353.5h120.2v23.8h25.1v17.2v6.6h23.8v72.7h-22.5V496.2z M724.7,473.8v-72.7
				h-23.8v-22.5h-47.6v47.6v22.5v12.2v36.7h11.6h13.5h23.8v-23.8H724.7z"/>
			<polygon class="st2" points="579.3,497.6 579.3,522.7 434,522.7 434,497.6 482.9,497.6 482.9,378.6 434,378.6 434,353.5
				579.3,353.5 579.3,377.3 531.8,377.3 531.8,424.9 531.8,497.6 544.7,497.6 			"/>
			<polygon class="st2" points="377.2,438.4 377.2,450 280.7,450 280.7,509.8 280.7,522.7 231.8,522.7 231.8,353.5 401,353.5
				401,377.3 280.7,377.3 280.7,424.9 353.4,424.9 374.2,424.9 377.2,424.9 377.2,435.5 			"/>
			<polygon class="st3" points="1958.8,402.4 1936.3,424.9 1936.3,402.4 			"/>
			<polygon class="st4" points="2515.1,353.5 2515.1,424.9 2467.5,424.9 2467.5,401.1 			"/>
			<polygon class="st4" points="2467.5,451.3 2467.5,522.7 2407.7,582.5 2407.7,511.1 			"/>
			<polygon class="st4" points="2442.4,426.2 2442.4,451.3 2382.6,511.1 2382.6,486 			"/>
			<polygon class="st4" points="2418.6,353.5 2418.6,426.2 2358.8,486 2358.8,413.3 			"/>
			<polygon class="st4" points="2297.1,378.6 2297.1,522.7 2237.3,582.5 2237.3,522.7 2237.3,438.4 			"/>
			<polygon class="st4" points="2248.2,353.5 2248.2,378.6 2188.4,438.4 2188.4,423.9 2234.9,377.3 2234.9,366.8 			"/>
			<polygon class="st4" points="2089.6,497.6 2089.6,522.7 2029.8,582.5 2029.8,557.4 2078.7,508.5 			"/>
			<polygon class="st4" points="2138.5,378.6 2138.5,497.6 2089.6,497.6 2078.7,508.5 2078.7,438.4 			"/>
			<polygon class="st4" points="2089.6,353.5 2089.6,378.6 2029.8,438.4 2029.8,429.2 2056.6,402.4 2056.6,386.6 			"/>
			<polygon class="st4" points="2007.7,473.8 2007.7,497.6 1983.9,497.6 			"/>
			<polygon class="st4" points="2007.7,378.6 2007.7,402.4 1947.9,462.2 1947.9,438.4 			"/>
			<polygon class="st4" points="1936.3,500.2 1936.3,522.7 1876.5,582.5 1876.5,560 			"/>
			<polygon class="st4" points="1912.5,473.8 1912.5,500.2 1852.7,560 1852.7,533.6 			"/>
			<polygon class="st4" points="1887.4,402.4 1887.4,473.8 1862.3,498.9 1862.3,497.6 1827.6,497.6 1827.6,462.2 1850.1,439.8
				"/>
			<polygon class="st4" points="1887.4,402.4 1850.1,439.8 1850.1,438.4 1875.2,413.3 1909.9,378.6 1909.9,402.4 			"/>
			<polygon class="st4" points="1935,353.5 1935,378.6 1909.9,378.6 			"/>
			<polygon class="st5" points="1717,497.6 1717,522.7 1657.2,582.5 1657.2,557.4 1691.9,522.7 1706.1,508.5 			"/>
			<polygon class="st5" points="1765.9,378.6 1765.9,497.6 1717,497.6 1706.1,508.5 1706.1,438.4 			"/>
			<polygon class="st5" points="1717,353.5 1717,378.6 1657.2,438.4 1657.2,413.3 			"/>
			<polygon class="st6" points="1546.5,353.5 1546.5,522.7 1486.7,582.5 1486.7,554.8 1518.8,522.7 1518.8,401.1 1498.9,401.1
				"/>
			<polygon class="st6" points="1470,475.1 1470,522.7 1410.2,582.5 1410.2,534.9 			"/>
			<polygon class="st6" points="1470,401.1 1470,450 1421.1,450 			"/>
			<polygon class="st6" points="1446.2,378.6 1446.2,401.1 1398.6,448.7 1398.6,426.2 			"/>
			<polygon class="st6" points="1397.3,353.5 1397.3,378.6 1372.2,378.6 			"/>
			<polygon class="st6" points="1337.5,413.3 1372.2,378.6 1372.2,402.4 1349.7,402.4 1312.4,439.8 1312.4,438.4 			"/>
			<polygon class="st6" points="1349.7,402.4 1349.7,522.7 1289.9,582.5 1289.9,557.4 1324.6,522.7 1324.6,497.6 1289.9,497.6
				1289.9,462.2 1312.4,439.8 			"/>
			<polygon class="st6" points="1179.3,497.6 1179.3,522.7 1119.5,582.5 1119.5,557.4 1168.3,508.5 			"/>
			<polygon class="st6" points="1228.2,378.6 1228.2,497.6 1179.3,497.6 1168.3,508.5 1168.3,438.4 			"/>
			<polygon class="st6" points="1179.3,353.5 1179.3,378.6 1119.5,438.4 1119.5,429.2 1146.2,402.4 1146.2,386.6 			"/>
			<polygon class="st6" points="1097.3,473.8 1097.3,497.6 1073.6,497.6 			"/>
			<polygon class="st6" points="1097.3,378.6 1097.3,402.4 1037.5,462.2 1037.5,438.4 			"/>
			<polygon class="st6" points="1026,500.2 1026,522.7 966.2,582.5 966.2,560 			"/>
			<polygon class="st6" points="1002.2,473.8 1002.2,500.2 942.4,560 942.4,533.6 			"/>
			<polygon class="st6" points="977.1,402.4 977.1,473.8 959.9,491 959.9,419.6 964.9,414.6 			"/>
			<polygon class="st6" points="964.9,413.3 999.5,378.6 999.5,402.4 977.1,402.4 964.9,414.6 			"/>
			<polygon class="st6" points="1024.7,353.5 1024.7,378.6 999.5,378.6 			"/>
			<polygon class="st6" points="911,353.5 911,497.6 851.2,497.6 851.2,413.3 			"/>
			<polygon class="st6" points="815.9,500.2 815.9,522.7 756.1,582.5 756.1,560 			"/>
			<polygon class="st6" points="790.8,353.5 790.8,500.2 731,560 731,517.7 751.1,497.6 751.1,496.2 773.6,473.8 773.6,401.1
				749.8,401.1 749.8,394.5 			"/>
			<polygon class="st6" points="702.2,473.8 702.2,497.6 678.5,497.6 			"/>
			<polygon class="st6" points="724.7,401.1 724.7,473.8 702.2,473.8 678.5,497.6 664.9,497.6 664.9,460.9 			"/>
			<polygon class="st6" points="700.9,378.6 700.9,401.1 653.3,448.7 653.3,426.2 			"/>
			<polygon class="st6" points="604.5,353.5 604.5,522.7 544.7,582.5 544.7,557.4 579.3,522.7 579.3,497.6 544.7,497.6 544.7,413.3
				580,378 			"/>
			<polygon class="st6" points="434,497.6 434,522.7 374.2,582.5 374.2,557.4 423.1,508.5 			"/>
			<polygon class="st6" points="434,353.5 434,378.6 377.2,435.5 377.2,424.9 374.2,424.9 374.2,413.3 			"/>
			<polygon class="st6" points="482.9,378.6 482.9,497.6 434,497.6 423.1,508.5 423.1,438.4 			"/>
			<polygon class="st6" points="231.8,353.5 231.8,522.7 172,582.5 172,413.3 			"/>
			<polygon class="st7" points="377.2,450 317.4,509.8 280.7,509.8 280.7,450 			"/>
			<polygon class="st7" points="401,377.3 353.4,424.9 280.7,424.9 280.7,377.3 			"/>
			<polygon class="st7" points="482.9,378.6 423.1,438.4 377.2,438.4 377.2,435.5 434,378.6 			"/>
			<polygon class="st7" points="579.3,377.3 531.8,424.9 531.8,377.3 			"/>
			<polygon class="st7" points="700.9,378.6 653.3,426.2 653.3,378.6 			"/>
			<polygon class="st7" points="724.7,401.1 664.9,460.9 653.3,460.9 653.3,448.7 700.9,401.1 			"/>
			<polygon class="st7" points="773.6,473.8 751.1,496.2 751.1,473.8 			"/>
			<polygon class="st7" points="751.1,497.6 731,517.7 726,522.7 726,497.6 			"/>
			<polygon class="st7" points="815.9,500.2 756.1,560 731,560 790.8,500.2 			"/>
			<polygon class="st7" points="959.9,497.6 937.5,520 937.5,497.6 			"/>
			<polygon class="st7" points="1146.2,402.4 1119.5,429.2 1086.4,462.2 1037.5,462.2 1097.3,402.4 			"/>
			<polygon class="st7" points="1048.4,402.4 1026,424.9 1026,402.4 			"/>
			<polygon class="st7" points="1097.3,378.6 1037.5,438.4 1026,438.4 1026,424.9 1048.4,402.4 1048.4,378.6 			"/>
			<polygon class="st7" points="1002.2,473.8 942.4,533.6 926.5,533.6 937.5,522.7 937.5,520 959.9,497.6 959.9,491 977.1,473.8
				"/>
			<polygon class="st7" points="1026,500.2 966.2,560 942.4,560 1002.2,500.2 			"/>
			<polygon class="st7" points="1146.2,497.6 1123.8,520 1123.8,497.6 			"/>
			<polygon class="st7" points="1228.2,378.6 1168.3,438.4 1119.5,438.4 1179.3,378.6 			"/>
			<polygon class="st7" points="1324.6,377.3 1277,424.9 1277,377.3 			"/>
			<polygon class="st7" points="1470,475.1 1410.2,534.9 1386.4,534.9 1398.6,522.7 1398.6,475.1 			"/>
			<polygon class="st7" points="1421.1,402.4 1398.6,424.9 1398.6,402.4 			"/>
			<polygon class="st7" points="1421.1,402.4 1421.1,378.6 1446.2,378.6 1398.6,426.2 1398.6,424.9 			"/>
			<polygon class="st7" points="1470,401.1 1421.1,450 1398.6,450 1398.6,448.7 1446.2,401.1 			"/>
			<polygon class="st8" points="1765.9,378.6 1706.1,438.4 1657.2,438.4 1717,378.6 			"/>
			<polygon class="st8" points="1862.3,377.3 1814.8,424.9 1814.8,377.3 			"/>
			<polygon class="st3" points="2056.6,497.6 2034.1,520 2034.1,497.6 			"/>
			<polygon class="st3" points="1936.3,500.2 1876.5,560 1852.7,560 1912.5,500.2 			"/>
			<polygon class="st3" points="1912.5,473.8 1852.7,533.6 1851.4,533.6 1862.3,522.7 1862.3,498.9 1887.4,473.8 			"/>
			<polygon class="st3" points="2007.7,378.6 1947.9,438.4 1936.3,438.4 1936.3,424.9 1958.8,402.4 1958.8,378.6 			"/>
			<polygon class="st3" points="2056.6,402.4 2029.8,429.2 1996.8,462.2 1947.9,462.2 2007.7,402.4 			"/>
			<polygon class="st3" points="2138.5,378.6 2078.7,438.4 2029.8,438.4 2089.6,378.6 			"/>
			<polygon class="st3" points="2188.4,423.9 2187.4,424.9 2187.4,377.3 2234.9,377.3 			"/>
			<polygon class="st3" points="2393.5,377.3 2345.9,424.9 2345.9,377.3 			"/>
			<polygon class="st3" points="2297.1,378.6 2237.3,438.4 2188.4,438.4 2248.2,378.6 			"/>
			<polygon class="st3" points="2564,424.9 2540.2,448.7 2540.2,424.9 			"/>
			<polygon class="st3" points="2540.2,450 2516.4,473.8 2516.4,450 			"/>
			<polygon class="st3" points="2442.4,426.2 2382.6,486 2358.8,486 2418.6,426.2 			"/>
			<polygon class="st3" points="2467.5,451.3 2407.7,511.1 2382.6,511.1 2442.4,451.3 			"/>
			<polygon class="st3" points="2516.4,522.7 2456.6,582.5 2407.7,582.5 2467.5,522.7 			"/>
			<polygon class="st3" points="2345.9,522.7 2286.1,582.5 2237.3,582.5 2297.1,522.7 			"/>
			<polygon class="st3" points="2234.9,522.7 2175.1,582.5 2029.8,582.5 2089.6,522.7 			"/>
			<polygon class="st3" points="2034.1,522.7 1974.3,582.5 1876.5,582.5 1936.3,522.7 			"/>
			<polygon class="st8" points="1862.3,522.7 1851.4,533.6 1802.5,582.5 1657.2,582.5 1717,522.7 			"/>
			<polygon class="st7" points="1691.9,522.7 1657.2,557.4 1632.1,582.5 1486.7,582.5 1546.5,522.7 			"/>
			<polygon class="st7" points="1518.8,522.7 1486.7,554.8 1459.1,582.5 1410.2,582.5 1470,522.7 			"/>
			<polygon class="st7" points="1398.6,522.7 1386.4,534.9 1338.8,582.5 1289.9,582.5 1349.7,522.7 			"/>
			<polygon class="st7" points="1324.6,522.7 1289.9,557.4 1264.8,582.5 1119.5,582.5 1179.3,522.7 			"/>
			<polygon class="st7" points="1123.8,522.7 1064,582.5 966.2,582.5 1026,522.7 			"/>
			<polygon class="st7" points="937.5,522.7 926.5,533.6 877.7,582.5 756.1,582.5 815.9,522.7 			"/>
			<polygon class="st7" points="726,522.7 666.2,582.5 544.7,582.5 604.5,522.7 			"/>
			<polygon class="st7" points="579.3,522.7 544.7,557.4 519.5,582.5 374.2,582.5 434,522.7 			"/>
			<polygon class="st7" points="280.7,522.7 220.9,582.5 172,582.5 231.8,522.7 			"/>
		</g>
		<g>
		</g>
	</g>
</g>
<g id="Layer_02">
</g>
</svg>
